<?xml version="1.0" encoding="UTF-8"?>
<svg xmlns="http://www.w3.org/2000/svg" viewBox="0 0 262.79 108.48">
    <defs>
        <style>
            .cls-1 {
            fill: #f9b900;
            }

            .cls-2 {
            fill: #fff;
            }

            .cls-3 {
            fill: #231815;
            }
        </style>
    </defs>
    <g>
        <g>
            <g>
                <path class="cls-3"
                    d="M180.53,72.88l-5.42-25.08v-4.91c0-28.63-11.38-42.88-37.97-42.88h-14.61c-26.59,0-37.85,14.37-37.85,42.88v4.91l-5.42,25.08,5.42-10.18v-2.45c0,28.63,11.14,42.88,37.85,42.88h14.61c26.59,0,37.97-14.25,37.97-42.88v2.45l5.42,10.18Zm-26.66-9.3c0,15.5-5.75,18.84-15.9,18.84h-16.3c-10.02,0-15.76-3.34-15.76-18.84v-19.37c0-15.1,5.74-18.7,15.76-18.7h16.3c10.15,0,15.9,3.61,15.9,18.7v19.37Z" />
                <path class="cls-1"
                    d="M129.9,22.5h0l-4.08-4.08h0c1.59-1.59,2.48-2.48,4.08-4.08h0l4.08,4.08h0c-1.59,1.59-2.48,2.48-4.08,4.08Z" />
                <g>
                    <g>
                        <circle class="cls-2" cx="139.41" cy="11.53" r="3.95" />
                        <circle class="cls-3" cx="139.41" cy="11.53" r="3.29" />
                    </g>
                    <g>
                        <circle class="cls-2" cx="120.38" cy="11.53" r="3.95" />
                        <circle class="cls-3" cx="120.38" cy="11.53" r="3.29" />
                    </g>
                </g>
                <g>
                    <path class="cls-1"
                        d="M119.02,108.48h-7.73c-3.31,0-6-2.69-6-6s2.69-6,6-6h7.73c3.31,0,6,2.69,6,6s-2.69,6-6,6Z" />
                    <path class="cls-1"
                        d="M148.5,108.48h-7.73c-3.31,0-6-2.69-6-6s2.69-6,6-6h7.73c3.31,0,6,2.69,6,6s-2.69,6-6,6Z" />
                </g>
            </g>
            <path class="cls-3"
                d="M236.27,108.48c-4.14,0-7.5-3.36-7.5-7.5v-10.81h-32.99c-2.74,0-5.26-1.5-6.58-3.9-1.32-2.4-1.22-5.33,.26-7.64L229.95,15.35c1.79-2.81,5.23-4.09,8.42-3.16s5.39,3.87,5.39,7.2v55.78h11.52c4.14,0,7.5,3.36,7.5,7.5s-3.36,7.5-7.5,7.5h-11.52v10.81c0,4.14-3.36,7.5-7.5,7.5Zm-26.79-33.31h19.29v-30.14l-19.29,30.14Z" />
            <path class="cls-3"
                d="M47.99,108.48c-4.14,0-7.5-3.36-7.5-7.5v-10.81H7.5c-2.74,0-5.26-1.5-6.58-3.9s-1.22-5.33,.26-7.64L41.67,15.35c1.8-2.81,5.23-4.09,8.42-3.16,3.2,.94,5.39,3.87,5.39,7.2v55.78h11.52c4.14,0,7.5,3.36,7.5,7.5s-3.36,7.5-7.5,7.5h-11.52v10.81c0,4.14-3.36,7.5-7.5,7.5Zm-26.79-33.31h19.29v-30.14l-19.29,30.14Z" />
        </g>
    </g>
</svg>
